<?xml version="1.0" standalone="no"?><!DOCTYPE svg PUBLIC "-//W3C//DTD SVG 1.1//EN" "http://www.w3.org/Graphics/SVG/1.1/DTD/svg11.dtd"><svg t="1641868566855" class="icon" viewBox="0 0 1024 1024" version="1.1" xmlns="http://www.w3.org/2000/svg" p-id="13222" xmlns:xlink="http://www.w3.org/1999/xlink" width="64" height="64"><defs><style type="text/css"></style></defs><path d="M512 512m-512 0a512 512 0 1 0 1024 0 512 512 0 1 0-1024 0Z" fill="#9FC2FF" fill-opacity=".28" p-id="13223"></path><path d="M702.0416 268.8H334.8608C319.616 268.8 307.2 280.3072 307.2 294.4s12.416 25.6 27.648 25.6h367.104c15.232 0 27.648-11.5072 27.648-25.6s-12.416-25.6-27.5584-25.6z m-170.752 97.28a26.9184 26.9184 0 0 0-15.1296-7.488h-0.1024c-0.3968-0.0896-0.7936-0.0896-1.088-0.0896h-0.2944c-0.3072 0-0.6912-0.1024-0.9984-0.1024h-3.5584c-0.2944 0-0.6912 0-0.9856 0.1024h-0.2944c-0.3968 0-0.7936 0.0896-1.088 0.0896h-0.1024c-5.5424 0.8832-10.88 3.3024-15.1296 7.488L327.936 527.9744a26.5856 26.5856 0 0 0 0 37.888 27.7504 27.7504 0 0 0 38.5792 0l118.1824-116.1216v291.4432c0 14.7712 12.2624 26.816 27.3024 26.816s27.3024-12.0448 27.3024-26.816V449.6512l118.1824 116.1216a27.7504 27.7504 0 0 0 38.5792 0 26.5856 26.5856 0 0 0 0-37.888L531.2896 366.08z" fill="#4E82FF" p-id="13224"></path></svg>